# This file uses centimeters as units for non-parametric coordinates.

mtllib Mesa.mtl
g default
v -9.085120 5.397054 0.158938
v -9.085120 6.050069 0.158938
v -9.085120 5.397054 -0.158938
v -9.085120 6.050069 -0.158938
v 9.085120 5.397054 0.158938
v 9.085120 6.050069 0.158938
v 9.085120 5.397054 -0.158938
v 9.085120 6.050069 -0.158938
v -9.354206 5.369115 -4.481162
v -9.354206 5.369119 4.481162
v -9.354206 6.078008 4.481162
v -9.354206 6.078004 -4.481162
v 9.354206 5.369115 -4.481162
v 9.354206 6.078004 -4.481162
v 9.354206 5.369119 4.481162
v 9.354206 6.078008 4.481162
v 9.353145 5.403659 -4.479441
v 9.353145 0.012614 -4.479441
v 9.353145 5.403659 -3.612557
v 9.353145 0.012614 -3.612557
v 8.450722 5.403659 -4.479441
v 8.450722 0.012614 -4.479441
v 8.450722 5.403659 -3.612557
v 8.450722 0.012614 -3.612557
v -9.353149 5.403659 -4.479441
v -9.353149 0.012614 -4.479441
v -9.353149 5.403659 -3.612557
v -9.353149 0.012614 -3.612557
v -8.450724 5.403659 -4.479441
v -8.450724 0.012614 -4.479441
v -8.450724 5.403659 -3.612557
v -8.450724 0.012614 -3.612557
v 9.353145 5.403659 4.479441
v 9.353145 0.012614 4.479441
v 9.353145 5.403659 3.612557
v 9.353145 0.012614 3.612557
v 8.450722 5.403659 4.479441
v 8.450722 0.012614 4.479441
v 8.450722 5.403659 3.612557
v 8.450722 0.012614 3.612557
v -9.353149 5.403659 4.479441
v -9.353149 0.012614 4.479441
v -9.353149 5.403659 3.612557
v -9.353149 0.012614 3.612557
v -8.450724 5.403659 4.479441
v -8.450724 0.012614 4.479441
v -8.450724 5.403659 3.612557
v -8.450724 0.012614 3.612557
vt 0.277377 0.289611
vt 0.277377 0.000063
vt 0.290745 0.000063
vt 0.290745 0.289611
vt 0.277377 0.592542
vt 0.277377 0.302999
vt 0.290745 0.302999
vt 0.290745 0.592542
vt 0.304259 0.013431
vt 0.290871 0.013431
vt 0.290871 0.000063
vt 0.304259 0.000063
vt 0.122718 0.691935
vt 0.015104 0.731525
vt 0.086469 0.361384
vt 0.147860 0.405055
vt 0.158009 0.317110
vt 0.074609 0.347273
vt 0.104094 0.000063
vt 0.181216 0.043859
vt 0.233400 0.377204
vt 0.161028 0.407092
vt 0.170644 0.318184
vt 0.247764 0.361979
vt 0.247095 0.749572
vt 0.137484 0.692378
vt 0.193851 0.044932
vt 0.277251 0.014769
vt 0.000063 0.728584
vt 0.266898 0.748753
vt 0.257448 0.999937
vt 0.277251 0.999118
vt 0.375000 0.000000
vt 0.375000 0.250000
vt 0.625000 0.250000
vt 0.625000 0.000000
vt 0.375000 0.500000
vt 0.625000 0.500000
vt 0.375000 0.750000
vt 0.625000 0.750000
vt 0.375000 1.000000
vt 0.625000 1.000000
vt 0.125000 0.500000
vt 0.125000 0.750000
vt 0.875000 0.750000
vt 0.875000 0.500000
vt 0.375000 0.000000
vt 0.625000 0.000000
vt 0.625000 0.250000
vt 0.375000 0.250000
vt 0.625000 0.500000
vt 0.375000 0.500000
vt 0.625000 0.750000
vt 0.375000 0.750000
vt 0.625000 1.000000
vt 0.375000 1.000000
vt 0.125000 0.500000
vt 0.125000 0.750000
vt 0.875000 0.500000
vt 0.875000 0.750000
vt 0.375000 0.000000
vt 0.625000 0.000000
vt 0.625000 0.250000
vt 0.375000 0.250000
vt 0.625000 0.500000
vt 0.375000 0.500000
vt 0.625000 0.750000
vt 0.375000 0.750000
vt 0.625000 1.000000
vt 0.375000 1.000000
vt 0.125000 0.500000
vt 0.125000 0.750000
vt 0.875000 0.500000
vt 0.875000 0.750000
vt 0.375000 0.000000
vt 0.375000 0.250000
vt 0.625000 0.250000
vt 0.625000 0.000000
vt 0.375000 0.500000
vt 0.625000 0.500000
vt 0.375000 0.750000
vt 0.625000 0.750000
vt 0.375000 1.000000
vt 0.625000 1.000000
vt 0.125000 0.500000
vt 0.125000 0.750000
vt 0.875000 0.750000
vt 0.875000 0.500000
vn 0.000000 0.000000 -1.000000
vn 0.000000 0.000000 -1.000000
vn 0.000000 0.000000 -1.000000
vn 0.000000 0.000000 -1.000000
vn 0.000000 0.000000 1.000000
vn 0.000000 0.000000 1.000000
vn 0.000000 0.000000 1.000000
vn 0.000000 0.000000 1.000000
vn -1.000000 0.000000 0.000000
vn -1.000000 0.000000 0.000000
vn -1.000000 0.000000 0.000000
vn -1.000000 0.000000 0.000000
vn 1.000000 0.000000 0.000000
vn 1.000000 0.000000 0.000000
vn 1.000000 0.000000 0.000000
vn 1.000000 0.000000 0.000000
vn 0.000000 0.999978 -0.006700
vn 0.000000 0.999978 -0.006700
vn 0.000000 0.999978 -0.006700
vn 0.000000 0.999978 -0.006700
vn 0.000000 -0.999978 -0.006700
vn 0.000000 -0.999978 -0.006700
vn 0.000000 -0.999978 -0.006700
vn 0.000000 -0.999978 -0.006700
vn -0.014025 0.999902 0.000000
vn -0.014025 0.999902 0.000000
vn -0.014025 0.999902 0.000000
vn -0.014025 0.999902 0.000000
vn -0.014025 -0.999902 0.000000
vn -0.014025 -0.999902 0.000000
vn -0.014025 -0.999902 0.000000
vn -0.014025 -0.999902 0.000000
vn 0.000000 0.999978 0.006700
vn 0.000000 0.999978 0.006700
vn 0.000000 0.999978 0.006700
vn 0.000000 0.999978 0.006700
vn 0.000000 -0.999978 0.006700
vn 0.000000 -0.999978 0.006700
vn 0.000000 -0.999978 0.006700
vn 0.000000 -0.999978 0.006700
vn 0.014025 0.999902 0.000000
vn 0.014025 0.999902 0.000000
vn 0.014025 0.999902 0.000000
vn 0.014025 0.999902 0.000000
vn 0.014025 -0.999902 0.000000
vn 0.014025 -0.999902 0.000000
vn 0.014025 -0.999902 0.000000
vn 0.014025 -0.999902 0.000000
vn 0.000000 0.000000 1.000000
vn 0.000000 0.000000 1.000000
vn 0.000000 0.000000 1.000000
vn 0.000000 0.000000 1.000000
vn 1.000000 0.000000 0.000000
vn 1.000000 0.000000 0.000000
vn 1.000000 0.000000 0.000000
vn 1.000000 0.000000 0.000000
vn 0.000000 0.000000 -1.000000
vn 0.000000 0.000000 -1.000000
vn 0.000000 0.000000 -1.000000
vn 0.000000 0.000000 -1.000000
vn -1.000000 0.000000 0.000000
vn -1.000000 0.000000 0.000000
vn -1.000000 0.000000 0.000000
vn -1.000000 0.000000 0.000000
vn 1.000000 0.000000 0.000000
vn 1.000000 0.000000 0.000000
vn 1.000000 0.000000 0.000000
vn 1.000000 0.000000 0.000000
vn 0.000000 0.000000 1.000000
vn 0.000000 0.000000 1.000000
vn 0.000000 0.000000 1.000000
vn 0.000000 0.000000 1.000000
vn -1.000000 0.000000 0.000000
vn -1.000000 0.000000 0.000000
vn -1.000000 0.000000 0.000000
vn -1.000000 0.000000 0.000000
vn 0.000000 0.000000 -1.000000
vn 0.000000 0.000000 -1.000000
vn 0.000000 0.000000 -1.000000
vn 0.000000 0.000000 -1.000000
vn 0.000000 1.000000 0.000000
vn 0.000000 1.000000 0.000000
vn 0.000000 1.000000 0.000000
vn 0.000000 1.000000 0.000000
vn 0.000000 -1.000000 0.000000
vn 0.000000 -1.000000 0.000000
vn 0.000000 -1.000000 0.000000
vn 0.000000 -1.000000 0.000000
vn -1.000000 0.000000 0.000000
vn -1.000000 0.000000 0.000000
vn -1.000000 0.000000 0.000000
vn -1.000000 0.000000 0.000000
vn 0.000000 0.000000 1.000000
vn 0.000000 0.000000 1.000000
vn 0.000000 0.000000 1.000000
vn 0.000000 0.000000 1.000000
vn 1.000000 0.000000 0.000000
vn 1.000000 0.000000 0.000000
vn 1.000000 0.000000 0.000000
vn 1.000000 0.000000 0.000000
vn 0.000000 0.000000 -1.000000
vn 0.000000 0.000000 -1.000000
vn 0.000000 0.000000 -1.000000
vn 0.000000 0.000000 -1.000000
vn 0.000000 1.000000 0.000000
vn 0.000000 1.000000 0.000000
vn 0.000000 1.000000 0.000000
vn 0.000000 1.000000 0.000000
vn 0.000000 -1.000000 0.000000
vn 0.000000 -1.000000 0.000000
vn 0.000000 -1.000000 0.000000
vn 0.000000 -1.000000 0.000000
vn 1.000000 0.000000 0.000000
vn 1.000000 0.000000 0.000000
vn 1.000000 0.000000 0.000000
vn 1.000000 0.000000 0.000000
vn 0.000000 0.000000 -1.000000
vn 0.000000 0.000000 -1.000000
vn 0.000000 0.000000 -1.000000
vn 0.000000 0.000000 -1.000000
vn -1.000000 0.000000 0.000000
vn -1.000000 0.000000 0.000000
vn -1.000000 0.000000 0.000000
vn -1.000000 0.000000 0.000000
vn 0.000000 0.000000 1.000000
vn 0.000000 0.000000 1.000000
vn 0.000000 0.000000 1.000000
vn 0.000000 0.000000 1.000000
vn 0.000000 1.000000 0.000000
vn 0.000000 1.000000 0.000000
vn 0.000000 1.000000 0.000000
vn 0.000000 1.000000 0.000000
vn 0.000000 -1.000000 0.000000
vn 0.000000 -1.000000 0.000000
vn 0.000000 -1.000000 0.000000
vn 0.000000 -1.000000 0.000000
vn -1.000000 0.000000 0.000000
vn -1.000000 0.000000 0.000000
vn -1.000000 0.000000 0.000000
vn -1.000000 0.000000 0.000000
vn 0.000000 0.000000 -1.000000
vn 0.000000 0.000000 -1.000000
vn 0.000000 0.000000 -1.000000
vn 0.000000 0.000000 -1.000000
vn 1.000000 0.000000 0.000000
vn 1.000000 0.000000 0.000000
vn 1.000000 0.000000 0.000000
vn 1.000000 0.000000 0.000000
vn 0.000000 0.000000 1.000000
vn 0.000000 0.000000 1.000000
vn 0.000000 0.000000 1.000000
vn 0.000000 0.000000 1.000000
vn 0.000000 1.000000 0.000000
vn 0.000000 1.000000 0.000000
vn 0.000000 1.000000 0.000000
vn 0.000000 1.000000 0.000000
vn 0.000000 -1.000000 0.000000
vn 0.000000 -1.000000 0.000000
vn 0.000000 -1.000000 0.000000
vn 0.000000 -1.000000 0.000000
s off
g MesaMadera:Mesh
usemtl MesaMadera:MeshSG
f 2/1/1 6/2/2 5/3/3 1/4/4
f 8/5/5 4/6/6 3/7/7 7/8/8
f 6/9/9 8/10/10 7/11/11 5/12/12
f 4/6/13 2/1/14 1/4/15 3/7/16
f 2/13/17 11/14/18 16/15/19 6/16/20
f 5/17/21 15/18/22 10/19/23 1/20/24
f 6/16/25 16/15/26 14/21/27 8/22/28
f 7/23/29 13/24/30 15/18/31 5/17/32
f 8/22/33 14/21/34 12/25/35 4/26/36
f 3/27/37 9/28/38 13/24/39 7/23/40
f 4/26/41 12/25/42 11/14/43 2/13/44
f 1/20/45 10/19/46 9/28/47 3/27/48
f 16/15/49 11/14/50 10/29/51 15/18/52
f 14/21/53 16/15/54 15/18/55 13/24/56
f 12/25/57 14/21/58 13/24/59 9/30/60
f 11/31/61 12/25/62 9/30/63 10/32/64
f 17/33/65 19/34/66 20/35/67 18/36/68
f 19/34/69 23/37/70 24/38/71 20/35/72
f 23/37/73 21/39/74 22/40/75 24/38/76
f 21/39/77 17/41/78 18/42/79 22/40/80
f 19/43/81 17/44/82 21/39/83 23/37/84
f 24/38/85 22/40/86 18/45/87 20/46/88
f 25/47/89 26/48/90 28/49/91 27/50/92
f 27/50/93 28/49/94 32/51/95 31/52/96
f 31/52/97 32/51/98 30/53/99 29/54/100
f 29/54/101 30/53/102 26/55/103 25/56/104
f 27/57/105 31/52/106 29/54/107 25/58/108
f 32/51/109 28/59/110 26/60/111 30/53/112
f 33/61/113 34/62/114 36/63/115 35/64/116
f 35/64/117 36/63/118 40/65/119 39/66/120
f 39/66/121 40/65/122 38/67/123 37/68/124
f 37/68/125 38/67/126 34/69/127 33/70/128
f 35/71/129 39/66/130 37/68/131 33/72/132
f 40/65/133 36/73/134 34/74/135 38/67/136
f 41/75/137 43/76/138 44/77/139 42/78/140
f 43/76/141 47/79/142 48/80/143 44/77/144
f 47/79/145 45/81/146 46/82/147 48/80/148
f 45/81/149 41/83/150 42/84/151 46/82/152
f 43/85/153 41/86/154 45/81/155 47/79/156
f 48/80/157 46/82/158 42/87/159 44/88/160
